<svg width="24" height="24" viewBox="0 0 24 24" fill="none" xmlns="http://www.w3.org/2000/svg">
<path d="M14.6923 18.0001C14.05 18.0001 13.5048 17.7761 13.0567 17.328C12.6087 16.8799 12.3846 16.3347 12.3846 15.6924C12.3846 15.0501 12.6087 14.5049 13.0567 14.0569C13.5048 13.6088 14.05 13.3848 14.6923 13.3848C15.3346 13.3848 15.8798 13.6088 16.3279 14.0569C16.7759 14.5049 17 15.0501 17 15.6924C17 16.3347 16.7759 16.8799 16.3279 17.328C15.8798 17.7761 15.3346 18.0001 14.6923 18.0001ZM5.3077 21.5001C4.80257 21.5001 4.375 21.3251 4.025 20.9751C3.675 20.6251 3.5 20.1975 3.5 19.6924V6.30784C3.5 5.80271 3.675 5.37514 4.025 5.02514C4.375 4.67514 4.80257 4.50014 5.3077 4.50014H6.69233V3.15397C6.69233 2.93475 6.76573 2.75174 6.91253 2.60494C7.05931 2.45816 7.24232 2.38477 7.46155 2.38477C7.68077 2.38477 7.86378 2.45816 8.01058 2.60494C8.15736 2.75174 8.23075 2.93475 8.23075 3.15397V4.50014H15.8077V3.13474C15.8077 2.92192 15.8794 2.74372 16.023 2.60014C16.1666 2.45656 16.3448 2.38477 16.5576 2.38477C16.7704 2.38477 16.9486 2.45656 17.0922 2.60014C17.2358 2.74372 17.3076 2.92192 17.3076 3.13474V4.50014H18.6923C19.1974 4.50014 19.625 4.67514 19.975 5.02514C20.325 5.37514 20.5 5.80271 20.5 6.30784V19.6924C20.5 20.1975 20.325 20.6251 19.975 20.9751C19.625 21.3251 19.1974 21.5001 18.6923 21.5001H5.3077ZM5.3077 20.0001H18.6923C18.782 20.0001 18.8557 19.9713 18.9134 19.9136C18.9711 19.8559 19 19.7821 19 19.6924V10.3078H4.99997V19.6924C4.99997 19.7821 5.02883 19.8559 5.08653 19.9136C5.14423 19.9713 5.21795 20.0001 5.3077 20.0001ZM4.99997 8.80787H19V6.30784C19 6.21809 18.9711 6.14437 18.9134 6.08667C18.8557 6.02897 18.782 6.00012 18.6923 6.00012H5.3077C5.21795 6.00012 5.14423 6.02897 5.08653 6.08667C5.02883 6.14437 4.99997 6.21809 4.99997 6.30784V8.80787Z" fill="#1DA1F2"/>
</svg>
