<svg width="24" height="24" viewBox="0 0 24 24" fill="none" xmlns="http://www.w3.org/2000/svg">
<path d="M4.3077 20.4999C3.80257 20.4999 3.375 20.3249 3.025 19.9749C2.675 19.6249 2.5 19.1973 2.5 18.6922V8.30765C2.5 7.80252 2.675 7.37495 3.025 7.02495C3.375 6.67495 3.80257 6.49995 4.3077 6.49995H8.5V4.80767C8.5 4.30256 8.675 3.875 9.025 3.525C9.375 3.175 9.80257 3 10.3077 3H13.6923C14.1974 3 14.625 3.175 14.975 3.525C15.325 3.875 15.5 4.30256 15.5 4.80767V6.49995H19.6923C20.1974 6.49995 20.625 6.67495 20.975 7.02495C21.325 7.37495 21.5 7.80252 21.5 8.30765V18.6922C21.5 19.1973 21.325 19.6249 20.975 19.9749C20.625 20.3249 20.1974 20.4999 19.6923 20.4999H4.3077ZM4.3077 18.9999H19.6923C19.7692 18.9999 19.8397 18.9679 19.9038 18.9038C19.9679 18.8397 20 18.7691 20 18.6922V8.30765C20 8.23072 19.9679 8.16019 19.9038 8.09608C19.8397 8.03198 19.7692 7.99993 19.6923 7.99993H4.3077C4.23077 7.99993 4.16024 8.03198 4.09613 8.09608C4.03202 8.16019 3.99998 8.23072 3.99998 8.30765V18.6922C3.99998 18.7691 4.03202 18.8397 4.09613 18.9038C4.16024 18.9679 4.23077 18.9999 4.3077 18.9999ZM9.99998 6.49995H14V4.80767C14 4.73074 13.9679 4.66022 13.9038 4.59612C13.8397 4.53201 13.7692 4.49995 13.6923 4.49995H10.3077C10.2308 4.49995 10.1602 4.53201 10.0961 4.59612C10.032 4.66022 9.99998 4.73074 9.99998 4.80767V6.49995Z" fill="#1DA1F2"/>
</svg>
